# xmcd
#
# Track frame offsets:
#	150
#	12051
#	24451
#	36252
#	46062
#	59343
#	73275
#	85647
#	97116
#	107685
#	122537
#
# Disc length: 1844 seconds
# Revision: 0
# Processed by: cddbd v1.5.2PL0 Copyright (c) Steve Scherf et al.
# Submitted via: dBpowerAMP V12.0
#
DISCID=8707320b
DTITLE=Tommy Overstreet - Woman, Your Name is My Song [Dot] (L)
DYEAR=1974
DGENRE=Country
TTITLE0=(Jeannie Marie) You Were a Lady
TTITLE1=Carolyn
TTITLE2=Laura (What's He Got That I Ain't Got)
TTITLE3=Goodbye Rosey
TTITLE4=Sundown Mary
TTITLE5=Ruby, Don't Take Your Love To Town
TTITLE6=Gwen (Congratulations)
TTITLE7=Smile At Me Sweet Nancy
TTITLE8=Ann (Don't Go Runnin')
TTITLE9=Sweet Caroline
TTITLE10=Polk Salad Annie
EXTD=
EXTT0=
EXTT1=
EXTT2=
EXTT3=
EXTT4=
EXTT5=
EXTT6=
EXTT7=
EXTT8=
EXTT9=
EXTT10=
PLAYORDER=
